# xmcd
#
# Track frame offsets:
#	150
#	12466
#	25301
#	38917
#	52394
#	66347
#	80551
#	93515
#	105862
#	120830
#	136972
#	151398
#	166787
#	184949
#	202447
#	218242
#	232985
#	248329
#	259955
#	270829
#	289743
#
# Disc length: 4030 seconds
#
# Revision: 1
# Processed by: cddbd v1.5.2PL0 Copyright (c) Steve Scherf et al.
# Submitted via: audiograbber 1.83.01
#
DISCID=270fbc15
DTITLE=Dolly Parton - Ultimate
DYEAR=2003
DGENRE=Country
TTITLE0=Jolene
TTITLE1=9 To 5
TTITLE2=Here You Come Again
TTITLE3=I Will Always Love You
TTITLE4=Joshua
TTITLE5=Coat Of Many Colors
TTITLE6=Please Don't Stop Loving Me
TTITLE7=The Bargain Store
TTITLE8=It's All Wrong, But It's All Right
TTITLE9=Heartbreaker
TTITLE10=I Really Got The Feeling
TTITLE11=You're The Only One
TTITLE12=Starting Over Again
TTITLE13=To Know Him Is To Love Him
TTITLE14=Old Flames (Can't Hold A Candle To You)
TTITLE15=But You Know I Love You
TTITLE16=Tennessee Homesick Blues
TTITLE17=Why'd You Come In Here Lookin' Like That
TTITLE18=Love Is Like A Butterfly
TTITLE19=Islands In The Stream
TTITLE20=Early Morning Breeze
EXTD=
EXTT0=
EXTT1=
EXTT2=
EXTT3=
EXTT4=
EXTT5=
EXTT6=
EXTT7=
EXTT8=
EXTT9=
EXTT10=
EXTT11=
EXTT12=
EXTT13=
EXTT14=
EXTT15=
EXTT16=
EXTT17=
EXTT18=
EXTT19=
EXTT20=
PLAYORDER=
